<svg version="1.1" width="100" height="100" xmlns="http://www.w3.org/2000/svg" viewBox="0 0 100 100">
    <circle fill="#ffffff" stroke="#cccccc" stroke-width="0.25" cx="50" cy="50" r="45" />
    <circle fill="#cccccc" cx="50" cy="50" r="43.5" />
    <path fill="#ffffffef" d="M52.6,31.5c0,0,1.3,4.6,1.3,8.3c0,3.6-2.3,6.5-5.9,6.5c-3.6,0-6.3-2.9-6.3-6.5l0.1-0.6c-3.5,4.2-5.6,9.6-5.6,15.5 c0,7.7,6.2,13.9,13.9,13.9s13.9-6.2,13.9-13.9C63.9,45.3,59.4,36.9,52.6,31.5z M49.5,63.3c-3.1,0-5.6-2.4-5.6-5.5 c0-2.8,1.8-4.8,4.9-5.4c3.1-0.6,6.3-2.1,8-4.5c0.7,2.2,1,4.6,1,7C57.8,59.6,54.1,63.3,49.5,63.3z" />
    <circle fill="#ffffff00" stroke="none" cx="50" cy="50" r="45" />
</svg>