<svg version="1.1" width="100" height="100" xmlns="http://www.w3.org/2000/svg" viewBox="0 0 100 100">
	<path fill="#fefefe" stroke="#cccccc" stroke-width="0.25" d="M50,16.5L9.1,38v49.3h81.8V38L50,16.5z" />
	<polygon fill="#00b9f1" points="5,35.2 50,12.7 95,35.2 95,41.3 95,43.4 50,20.9 5,43.4 5,41.3" />
	<g>
		<rect fill="#787878" x="19.3" y="50.5" width="61.4" height="36.8" />
		<polygon fill="#686868" points="76.6,50.5 23.4,50.5 19.3,50.5 19.3,54.6 19.3,87.3 23.4,87.3 23.4,54.6 76.6,54.6 76.6,87.3  80.7,87.3 80.7,54.6 80.7,50.5" />
		<path fill="#999999" d="M80.7,66.9H19.3v-4.1h61.4V66.9z M80.7,71H19.3V75h61.4V71z M80.7,79.1H19.3v4.1h61.4V79.1z M80.7,54.6H19.3 v4.1h61.4V54.6z" />
		<path fill="#8a8a8a" d="M80.7,58.7h-4.1v-4.1h4.1V58.7z M80.7,62.8h-4.1v4.1h4.1V62.8z M80.7,71h-4.1V75h4.1V71z M80.7,79.1h-4.1v4.1 h4.1V79.1z M23.4,54.6h-4.1v4.1h4.1V54.6z M23.4,62.8h-4.1v4.1h4.1V62.8z M23.4,71h-4.1V75h4.1V71z M23.4,79.1h-4.1v4.1h4.1V79.1z" />
	</g>
</svg>