<svg version="1.1" width="100" height="100" xmlns="http://www.w3.org/2000/svg" viewBox="0 0 100 100">
    <circle fill="#ffffff" stroke="#cccccc" stroke-width="0.25" cx="50" cy="50" r="45" />
    <circle fill="#00b9f1" cx="50" cy="50" r="43.5" />
    <path fill="#ffffffef" d="M50,31.5c-10.2,0-18.5,8.3-18.5,18.5S39.8,68.6,50,68.6S68.6,60.2,68.6,50S60.2,31.5,50,31.5z M42.6,60.2 c-2.6,0-4.6-2.1-4.6-4.6s2.1-4.6,4.6-4.6c2.6,0,4.6,2.1,4.6,4.6C47.2,58.1,45.1,60.2,42.6,60.2z M45.4,42.6c0-2.6,2.1-4.6,4.6-4.6 s4.6,2.1,4.6,4.6c0,2.6-2.1,4.6-4.6,4.6S45.4,45.1,45.4,42.6z M57.4,60.2c-2.6,0-4.6-2.1-4.6-4.6s2.1-4.6,4.6-4.6 c2.6,0,4.6,2.1,4.6,4.6C62.1,58.1,60,60.2,57.4,60.2z" />
    <circle fill="#ffffff00" stroke="none" cx="50" cy="50" r="45" />
</svg>