<svg version="1.1" width="100" height="100" xmlns="http://www.w3.org/2000/svg" viewBox="0 0 100 100">
    <g>
        <path fill="#cccccc" stroke="#cccccc" stroke-width="3.25" d="M65.5,28.1v0.2H75v-0.2c0-13.8-11.2-25-25-25s-25,11.2-25,25v10v26h9.5v-26v-10c0-8.6,7-15.5,15.5-15.5 S65.5,19.5,65.5,28.1z" />
        <path fill="#cccccc" stroke="#cccccc" stroke-width="3.25" d="M15.8,81.1v7.3c0,4.7,3.8,8.5,8.5,8.5h51.2c4.7,0,8.5-3.8,8.5-8.5v-7.3H15.8z" />
        <path fill="#cccccc" stroke="#cccccc" stroke-width="1.25" stroke-miterlimit="10" d="M96.9,77c0,7.1-5.8,12.8-12.8,12.8H16C8.9,89.9,3.1,84.1,3.1,77S8.9,64.2,16,64.2h68C91.1,64.2,96.9,70,96.9,77 z" />
        <path fill="#cccccc" stroke="#ffffff" stroke-width="3" d="M65.5,28.1v0.2H75v-0.2c0-13.8-11.2-25-25-25s-25,11.2-25,25v10v26h9.5v-26v-10c0-8.6,7-15.5,15.5-15.5 S65.5,19.5,65.5,28.1z" />
        <path fill="#cccccc" stroke="#ffffff" stroke-width="3" d="M15.8,81.1v7.3c0,4.7,3.8,8.5,8.5,8.5h51.2c4.7,0,8.5-3.8,8.5-8.5v-7.3H15.8z" />
        <path fill="#5c5c5c" stroke="#ffffff" stroke-miterlimit="10" d="M96.9,77c0,7.1-5.8,12.8-12.8,12.8H16C8.9,89.9,3.1,84.1,3.1,77S8.9,64.2,16,64.2h68C91.1,64.2,96.9,70,96.9,77 z" />
        <path fill="#ffffff" d="M18.4,77.8c0,0.4-0.1,0.8-0.2,1.1c-0.1,0.3-0.3,0.6-0.5,0.9c-0.2,0.2-0.5,0.4-0.9,0.6 c-0.4,0.1-0.8,0.2-1.2,0.2c-0.5,0-0.9-0.1-1.2-0.2c-0.4-0.1-0.6-0.3-0.9-0.6c-0.2-0.2-0.4-0.5-0.5-0.9c-0.1-0.3-0.2-0.7-0.2-1.1 v-4.1h1.5v4c0,0.2,0,0.4,0.1,0.6c0.1,0.2,0.2,0.3,0.3,0.5c0.1,0.1,0.3,0.2,0.4,0.3c0.2,0.1,0.3,0.1,0.5,0.1c0.2,0,0.4,0,0.5-0.1 s0.3-0.2,0.4-0.3c0.1-0.1,0.2-0.3,0.3-0.5c0.1-0.2,0.1-0.4,0.1-0.6v-4h1.5V77.8z" />
        <path fill="#ffffff" d="M19.8,73.7h2l2.8,4.6h0v-4.6h1.5v6.7h-1.9l-2.9-4.7h0v4.7h-1.5V73.7z" />
        <path fill="#ffffff" d="M27.5,73.7H29V79h2.7v1.4h-4.2V73.7z" />
        <path fill="#ffffff" d="M32.1,77c0-0.5,0.1-1,0.3-1.4c0.2-0.4,0.4-0.8,0.7-1.1c0.3-0.3,0.7-0.5,1.1-0.7c0.4-0.2,0.9-0.2,1.4-0.2 s1,0.1,1.4,0.2c0.4,0.2,0.8,0.4,1.1,0.7c0.3,0.3,0.6,0.7,0.7,1.1c0.2,0.4,0.3,0.9,0.3,1.4c0,0.5-0.1,1-0.3,1.4 c-0.2,0.4-0.4,0.8-0.7,1.1c-0.3,0.3-0.7,0.5-1.1,0.7c-0.4,0.2-0.9,0.2-1.4,0.2s-1-0.1-1.4-0.2c-0.4-0.2-0.8-0.4-1.1-0.7 c-0.3-0.3-0.6-0.7-0.7-1.1C32.2,78,32.1,77.6,32.1,77z M33.7,77c0,0.3,0,0.6,0.1,0.9c0.1,0.3,0.2,0.5,0.4,0.7 c0.2,0.2,0.4,0.3,0.7,0.4c0.3,0.1,0.5,0.2,0.9,0.2c0.3,0,0.6-0.1,0.9-0.2c0.3-0.1,0.5-0.3,0.7-0.4c0.2-0.2,0.3-0.4,0.4-0.7 c0.1-0.3,0.1-0.5,0.1-0.9c0-0.3,0-0.6-0.1-0.9c-0.1-0.3-0.2-0.5-0.4-0.7c-0.2-0.2-0.4-0.3-0.7-0.4c-0.3-0.1-0.5-0.2-0.9-0.2 c-0.3,0-0.6,0.1-0.9,0.2c-0.3,0.1-0.5,0.3-0.7,0.4c-0.2,0.2-0.3,0.4-0.4,0.7C33.7,76.4,33.7,76.7,33.7,77z" />
        <path fill="#ffffff" d="M44.7,75.4c-0.1-0.2-0.3-0.3-0.5-0.4c-0.2-0.1-0.5-0.1-0.7-0.1c-0.3,0-0.5,0.1-0.8,0.2 c-0.2,0.1-0.4,0.3-0.6,0.4c-0.2,0.2-0.3,0.4-0.4,0.7c-0.1,0.3-0.1,0.5-0.1,0.9c0,0.3,0,0.6,0.1,0.9c0.1,0.3,0.2,0.5,0.4,0.7 c0.2,0.2,0.4,0.3,0.6,0.4c0.2,0.1,0.5,0.2,0.7,0.2c0.3,0,0.6-0.1,0.8-0.2c0.2-0.1,0.4-0.3,0.6-0.5l1.2,0.9 c-0.3,0.4-0.6,0.7-1.1,0.9c-0.4,0.2-0.9,0.3-1.3,0.3c-0.5,0-1-0.1-1.4-0.2c-0.4-0.2-0.8-0.4-1.1-0.7c-0.3-0.3-0.6-0.7-0.7-1.1 C40.1,78,40,77.6,40,77c0-0.5,0.1-1,0.3-1.4c0.2-0.4,0.4-0.8,0.7-1.1c0.3-0.3,0.7-0.5,1.1-0.7c0.4-0.2,0.9-0.2,1.4-0.2 c0.2,0,0.4,0,0.6,0.1c0.2,0,0.4,0.1,0.6,0.2c0.2,0.1,0.4,0.2,0.6,0.3c0.2,0.1,0.3,0.3,0.5,0.5L44.7,75.4z" />
        <path fill="#ffffff" d="M46.8,73.7h1.5v2.8l2.6-2.8h1.9l-3,3.1l3.2,3.6H51l-2.7-3.2v3.2h-1.5V73.7z" />
        <path fill="#ffffff" d="M53.6,73.7h4.5v1.4h-3.1v1.2H58v1.4h-2.9V79h3.2v1.4h-4.7V73.7z" />
        <path fill="#ffffff" d="M59.5,73.7h2.2c0.5,0,1,0.1,1.5,0.2c0.5,0.1,0.9,0.3,1.3,0.6c0.4,0.3,0.6,0.6,0.9,1c0.2,0.4,0.3,0.9,0.3,1.6 c0,0.5-0.1,1-0.3,1.4c-0.2,0.4-0.5,0.8-0.8,1c-0.3,0.3-0.7,0.5-1.2,0.6c-0.5,0.1-0.9,0.2-1.4,0.2h-2.4V73.7z M61,79h0.8 c0.3,0,0.7,0,0.9-0.1c0.3-0.1,0.5-0.2,0.8-0.3c0.2-0.2,0.4-0.4,0.5-0.6c0.1-0.3,0.2-0.6,0.2-1c0-0.3-0.1-0.6-0.2-0.9 c-0.1-0.2-0.3-0.4-0.5-0.6c-0.2-0.2-0.4-0.3-0.7-0.4c-0.3-0.1-0.6-0.1-0.9-0.1H61V79z" />
        <circle fill="#ffffff" cx="83.9" cy="77" r="11" />
    </g>
</svg>