<svg version="1.1" width="100" height="100" xmlns="http://www.w3.org/2000/svg" viewBox="0 0 100 100">
    <g>
        <path fill="#cccccc" stroke="#cccccc" stroke-width="3.25" d="M15.8,81.1v7.3c0,4.7,3.8,8.5,8.5,8.5h51.2c4.7,0,8.5-3.8,8.5-8.5v-7.3H15.8z" />
        <path fill="#cccccc" stroke="#cccccc" stroke-width="3.25" d="M50,3.1c-13.8,0-25,11.2-25,25v10v26h9.5v-26v-10c0-8.6,7-15.5,15.5-15.5s15.5,7,15.5,15.5v10v26H75v-26v-10 C75,14.3,63.8,3.1,50,3.1z" />
        <path fill="#cccccc" stroke="#cccccc" stroke-width="1.25" stroke-miterlimit="10" d="M96.9,77c0,7.1-5.8,12.8-12.8,12.8H16C8.9,89.9,3.1,84.1,3.1,77S8.9,64.2,16,64.2h68C91.1,64.2,96.9,70,96.9,77 z" />
        <path fill="#cccccc" stroke="#ffffff" stroke-width="3" d="M15.8,81.1v7.3c0,4.7,3.8,8.5,8.5,8.5h51.2c4.7,0,8.5-3.8,8.5-8.5v-7.3H15.8z" />
        <path fill="#cccccc" stroke="#ffffff" stroke-width="3" d="M50,3.1c-13.8,0-25,11.2-25,25v10v26h9.5v-26v-10c0-8.6,7-15.5,15.5-15.5s15.5,7,15.5,15.5v10v26H75v-26v-10 C75,14.3,63.8,3.1,50,3.1z" />
        <path fill="#00b9f1" stroke="#ffffff" stroke-miterlimit="10" d="M96.9,77c0,7.1-5.8,12.8-12.8,12.8H16C8.9,89.9,3.1,84.1,3.1,77S8.9,64.2,16,64.2h68C91.1,64.2,96.9,70,96.9,77 z" />
        <path fill="#ffffff" d="M40.9,73.7h1.5V79h2.7v1.4h-4.2V73.7z" />
        <path fill="#ffffff" d="M45.6,77c0-0.5,0.1-1,0.3-1.4c0.2-0.4,0.4-0.8,0.7-1.1c0.3-0.3,0.7-0.5,1.1-0.7c0.4-0.2,0.9-0.2,1.4-0.2 c0.5,0,1,0.1,1.4,0.2c0.4,0.2,0.8,0.4,1.1,0.7c0.3,0.3,0.6,0.7,0.7,1.1c0.2,0.4,0.3,0.9,0.3,1.4c0,0.5-0.1,1-0.3,1.4 c-0.2,0.4-0.4,0.8-0.7,1.1c-0.3,0.3-0.7,0.5-1.1,0.7c-0.4,0.2-0.9,0.2-1.4,0.2c-0.5,0-1-0.1-1.4-0.2c-0.4-0.2-0.8-0.4-1.1-0.7 c-0.3-0.3-0.6-0.7-0.7-1.1C45.7,78,45.6,77.6,45.6,77z M47.1,77c0,0.3,0,0.6,0.1,0.9c0.1,0.3,0.2,0.5,0.4,0.7 c0.2,0.2,0.4,0.3,0.7,0.4c0.3,0.1,0.5,0.2,0.9,0.2c0.3,0,0.6-0.1,0.9-0.2c0.3-0.1,0.5-0.3,0.7-0.4c0.2-0.2,0.3-0.4,0.4-0.7 c0.1-0.3,0.1-0.5,0.1-0.9c0-0.3,0-0.6-0.1-0.9s-0.2-0.5-0.4-0.7c-0.2-0.2-0.4-0.3-0.7-0.4c-0.3-0.1-0.5-0.2-0.9-0.2 c-0.3,0-0.6,0.1-0.9,0.2c-0.3,0.1-0.5,0.3-0.7,0.4c-0.2,0.2-0.3,0.4-0.4,0.7S47.1,76.7,47.1,77z" />
        <path fill="#ffffff" d="M58.1,75.4c-0.1-0.2-0.3-0.3-0.5-0.4c-0.2-0.1-0.5-0.1-0.7-0.1s-0.5,0.1-0.8,0.2c-0.2,0.1-0.4,0.3-0.6,0.4 c-0.2,0.2-0.3,0.4-0.4,0.7s-0.1,0.5-0.1,0.9c0,0.3,0,0.6,0.1,0.9c0.1,0.3,0.2,0.5,0.4,0.7c0.2,0.2,0.4,0.3,0.6,0.4 c0.2,0.1,0.5,0.2,0.7,0.2c0.3,0,0.6-0.1,0.8-0.2c0.2-0.1,0.4-0.3,0.6-0.5l1.2,0.9c-0.3,0.4-0.6,0.7-1.1,0.9 c-0.4,0.2-0.9,0.3-1.3,0.3c-0.5,0-1-0.1-1.4-0.2c-0.4-0.2-0.8-0.4-1.1-0.7c-0.3-0.3-0.6-0.7-0.7-1.1c-0.2-0.4-0.3-0.9-0.3-1.4 c0-0.5,0.1-1,0.3-1.4c0.2-0.4,0.4-0.8,0.7-1.1c0.3-0.3,0.7-0.5,1.1-0.7c0.4-0.2,0.9-0.2,1.4-0.2c0.2,0,0.4,0,0.6,0.1 c0.2,0,0.4,0.1,0.6,0.2c0.2,0.1,0.4,0.2,0.6,0.3c0.2,0.1,0.3,0.3,0.5,0.5L58.1,75.4z" />
        <path fill="#ffffff" d="M60.3,73.7h1.5v2.8l2.6-2.8h1.9l-3,3.1l3.2,3.6h-2.1l-2.7-3.2v3.2h-1.5V73.7z" />
        <path fill="#ffffff" d="M67.1,73.7h4.5v1.4h-3.1v1.2h2.9v1.4h-2.9V79h3.2v1.4h-4.7V73.7z" />
        <path fill="#ffffff" d="M72.9,73.7h2.2c0.5,0,1,0.1,1.5,0.2c0.5,0.1,0.9,0.3,1.3,0.6c0.4,0.3,0.6,0.6,0.9,1c0.2,0.4,0.3,0.9,0.3,1.6 c0,0.5-0.1,1-0.3,1.4c-0.2,0.4-0.5,0.8-0.8,1c-0.3,0.3-0.7,0.5-1.2,0.6c-0.5,0.1-0.9,0.2-1.4,0.2h-2.4V73.7z M74.4,79h0.8 c0.3,0,0.7,0,0.9-0.1c0.3-0.1,0.5-0.2,0.8-0.3c0.2-0.2,0.4-0.4,0.5-0.6c0.1-0.3,0.2-0.6,0.2-1c0-0.3-0.1-0.6-0.2-0.9 c-0.1-0.2-0.3-0.4-0.5-0.6c-0.2-0.2-0.4-0.3-0.7-0.4c-0.3-0.1-0.6-0.1-0.9-0.1h-0.9V79z" />
        <circle fill="#ffffff" cx="15.9" cy="77" r="11" />
    </g>
</svg>