<svg version="1.1" xmlns="http://www.w3.org/2000/svg" viewBox="0 0 23 23">
	<circle fill="#ffffff" stroke="#cccccc" stroke-width="0.25" stroke-miterlimit="10" cx="11.5" cy="11.5" r="11.5" />
	<path fill="#999999" d="M11.5,4.8c-3.7,0-6.7,3-6.7,6.7s3,6.7,6.7,6.7c0.6,0,1.1-0.5,1.1-1.1c0-0.3-0.1-0.5-0.3-0.7 c-0.2-0.2-0.3-0.5-0.3-0.7c0-0.6,0.5-1.1,1.1-1.1h1.3c2,0,3.7-1.7,3.7-3.7C18.2,7.5,15.2,4.8,11.5,4.8z M7.4,11.5 c-0.6,0-1.1-0.5-1.1-1.1s0.5-1.1,1.1-1.1s1.1,0.5,1.1,1.1S8,11.5,7.4,11.5z M9.6,8.5C9,8.5,8.5,8,8.5,7.4S9,6.3,9.6,6.3 s1.1,0.5,1.1,1.1S10.3,8.5,9.6,8.5z M13.4,8.5c-0.6,0-1.1-0.5-1.1-1.1s0.5-1.1,1.1-1.1s1.1,0.5,1.1,1.1S14,8.5,13.4,8.5z M15.6,11.5 c-0.6,0-1.1-0.5-1.1-1.1s0.5-1.1,1.1-1.1s1.1,0.5,1.1,1.1S16.2,11.5,15.6,11.5z" />
</svg>