<svg version="1.1" xmlns="http://www.w3.org/2000/svg" viewBox="0 0 512 512">
    <path fill="#cccccc" d="M320,384c0,35.3-28.7,64-64,64s-64-28.7-64-64c0-23.7,12.9-44.3,32-55.4V288c0-17.7,14.3-32,32-32s32,14.3,32,32v40.6 C307.1,339.7,320,360.3,320,384z M352,299.3c19.9,22.6,32,52.2,32,84.7c0,70.7-57.3,128-128,128c-0.3,0-0.6,0-0.9,0 c-70.3-0.5-127.4-58.4-127.1-128.7c0.2-32.2,12.2-61.6,32-84V96c0-53,43-96,96-96s96,43,96,96V299.3z M336,384 c0-34.3-19.4-52.2-32-66.5V96c0-26.5-21.5-48-48-48s-48,21.5-48,48v221.5c-12.7,14.4-31.8,32.1-32,66.1 c-0.2,43.9,35.6,80.1,79.4,80.4l0.6,0C300.1,464,336,428.1,336,384z" />
</svg>