<svg version="1.1" width="100" height="100" xmlns="http://www.w3.org/2000/svg" viewBox="0 0 100 100">
	<circle fill="#ffffff" stroke="#cccccc" stroke-width="0.25" cx="50" cy="50" r="45" />
	<circle fill="#fafafa" cx="50" cy="50" r="43.5" />
	<path fill="none" stroke="#ffc008" stroke-width="5" d="M30,84.6C10.9,73.6,4.3,49.1,15.4,30S50.9,4.3,70,15.4S95.7,50.9,84.6,70C81.1,76.1,76,81.1,70,84.6" />
	<path fill="none" stroke="#f27c05" stroke-width="5" d="M30,84.6C10.9,73.6,4.3,49.1,15.4,30c3.9-6.7,9.6-12.1,16.5-15.6" />
	<path fill="none" stroke="#cccccc" stroke-width="0.3" stroke-miterlimit="10" d="M53.9,19.8l0.6-4.4 M57.7,20.5l1.1-4.2 M61.5,21.7l1.6-4 M65,23.4l2.1-3.8 M68.3,25.5l2.6-3.6 M71.3,28l3-3.2 M74,30.8l3.4-2.8 M76.3,34l3.7-2.3 M78.2,37.4l3.9-1.8 M79.6,41.1l4.2-1.4 M80.6,44.8l4.3-0.8 M81.1,48.7l4.3-0.2 M81.1,52.6 l4.3,0.3 M80.6,56.5l4.3,0.8 M79.6,60.3l4.2,1.4 M78.2,63.9l3.9,1.9 M76.3,67.4l3.7,2.3 M74,70.5l3.4,2.8 M71.3,73.4l3,3.2 M68.3,75.9l2.6,3.5 M31.7,75.9l-2.6,3.5 M28.7,73.4l-3,3.2 M26,70.5l-3.4,2.8 M23.7,67.4L20,69.7 M21.8,63.9l-3.9,1.9 M20.4,60.3 l-4.2,1.4 M19.4,56.5l-4.3,0.8 M18.9,52.6l-4.3,0.3 M18.9,48.7l-4.3-0.2 M19.4,44.8L15.1,44 M20.4,41.1l-4.2-1.4 M21.8,37.4 l-3.9-1.8 M23.7,34L20,31.7 M26,30.8L22.6,28 M28.7,28l-3-3.2 M31.7,25.5l-2.6-3.6 M35,23.4l-2.1-3.8 M38.5,21.7l-1.6-4 M42.3,20.5 l-1.1-4.2 M46.1,19.8l-0.6-4.4 M50,19.5v-4.3" />
	<text fill="#f27c05" font-family="'Avenir-Black'" font-size="17.0149px" transform="matrix(1 0 0 1 38.5244 56.3777)">73°</text>
	<circle fill="#ffffff" stroke="#cccccc" stroke-width="0.25" stroke-miterlimit="10" cx="50" cy="80" r="5.9" />
	<path fill="#999999" d="M50.4,76.6h-0.8v3.8h0.8V76.6z M52.2,77.4L51.7,78c0.6,0.5,1,1.2,1,2c0,1.5-1.2,2.6-2.6,2.6s-2.6-1.2-2.6-2.6 c0-0.8,0.4-1.6,1-2l-0.5-0.5c-0.7,0.6-1.2,1.5-1.2,2.6c0,1.9,1.5,3.4,3.4,3.4s3.4-1.5,3.4-3.4C53.4,79,52.9,78.1,52.2,77.4z" />
</svg>